<svg width="154" height="56" viewBox="0 0 154 56" fill="none" xmlns="http://www.w3.org/2000/svg">
<g filter="url(#filter0_d_1103_2)">
<rect x="4" width="146" height="48" rx="24" fill="#F7F8FC"/>
<path d="M52.728 19.96V22.232H56.392V24.344H52.728V26.808H56.872V29H49.992V17.768H56.872V19.96H52.728ZM63.6243 26.68V29H62.2323C61.2403 29 60.4669 28.76 59.9123 28.28C59.3576 27.7893 59.0803 26.9947 59.0803 25.896V22.344H57.9923V20.072H59.0803V17.896H61.8163V20.072H63.6083V22.344H61.8163V25.928C61.8163 26.1947 61.8803 26.3867 62.0083 26.504C62.1363 26.6213 62.3496 26.68 62.6483 26.68H63.6243ZM70.6363 19.976C71.6603 19.976 72.4816 20.3173 73.1003 21C73.7189 21.672 74.0283 22.6 74.0283 23.784V29H71.3083V24.152C71.3083 23.5547 71.1536 23.0907 70.8443 22.76C70.5349 22.4293 70.1189 22.264 69.5963 22.264C69.0736 22.264 68.6576 22.4293 68.3483 22.76C68.0389 23.0907 67.8843 23.5547 67.8843 24.152V29H65.1483V17.16H67.8843V21.272C68.1616 20.8773 68.5403 20.5627 69.0203 20.328C69.5003 20.0933 70.0389 19.976 70.6363 19.976ZM75.3855 24.52C75.3855 23.6027 75.5562 22.7973 75.8975 22.104C76.2495 21.4107 76.7242 20.8773 77.3215 20.504C77.9188 20.1307 78.5855 19.944 79.3215 19.944C79.9508 19.944 80.5002 20.072 80.9695 20.328C81.4495 20.584 81.8175 20.92 82.0735 21.336V20.072H84.8095V29H82.0735V27.736C81.8068 28.152 81.4335 28.488 80.9535 28.744C80.4842 29 79.9348 29.128 79.3055 29.128C78.5802 29.128 77.9188 28.9413 77.3215 28.568C76.7242 28.184 76.2495 27.6453 75.8975 26.952C75.5562 26.248 75.3855 25.4373 75.3855 24.52ZM82.0735 24.536C82.0735 23.8533 81.8815 23.3147 81.4975 22.92C81.1242 22.5253 80.6655 22.328 80.1215 22.328C79.5775 22.328 79.1135 22.5253 78.7295 22.92C78.3562 23.304 78.1695 23.8373 78.1695 24.52C78.1695 25.2027 78.3562 25.7467 78.7295 26.152C79.1135 26.5467 79.5775 26.744 80.1215 26.744C80.6655 26.744 81.1242 26.5467 81.4975 26.152C81.8815 25.7573 82.0735 25.2187 82.0735 24.536ZM92.2289 19.976C93.2742 19.976 94.1062 20.3173 94.7249 21C95.3542 21.672 95.6689 22.6 95.6689 23.784V29H92.9489V24.152C92.9489 23.5547 92.7942 23.0907 92.4849 22.76C92.1755 22.4293 91.7595 22.264 91.2369 22.264C90.7142 22.264 90.2982 22.4293 89.9889 22.76C89.6795 23.0907 89.5249 23.5547 89.5249 24.152V29H86.7889V20.072H89.5249V21.256C89.8022 20.8613 90.1755 20.552 90.6449 20.328C91.1142 20.0933 91.6422 19.976 92.2289 19.976ZM105.025 29.112C104.203 29.112 103.467 28.9787 102.817 28.712C102.166 28.4453 101.643 28.0507 101.249 27.528C100.865 27.0053 100.662 26.376 100.641 25.64H103.553C103.595 26.056 103.739 26.376 103.985 26.6C104.23 26.8133 104.55 26.92 104.945 26.92C105.35 26.92 105.67 26.8293 105.905 26.648C106.139 26.456 106.257 26.1947 106.257 25.864C106.257 25.5867 106.161 25.3573 105.969 25.176C105.787 24.9947 105.558 24.8453 105.281 24.728C105.014 24.6107 104.63 24.4773 104.129 24.328C103.403 24.104 102.811 23.88 102.353 23.656C101.894 23.432 101.499 23.1013 101.169 22.664C100.838 22.2267 100.673 21.656 100.673 20.952C100.673 19.9067 101.051 19.0907 101.809 18.504C102.566 17.9067 103.553 17.608 104.769 17.608C106.006 17.608 107.003 17.9067 107.761 18.504C108.518 19.0907 108.923 19.912 108.977 20.968H106.017C105.995 20.6053 105.862 20.3227 105.617 20.12C105.371 19.9067 105.057 19.8 104.673 19.8C104.342 19.8 104.075 19.8907 103.873 20.072C103.67 20.2427 103.569 20.4933 103.569 20.824C103.569 21.1867 103.739 21.4693 104.081 21.672C104.422 21.8747 104.955 22.0933 105.681 22.328C106.406 22.5733 106.993 22.808 107.441 23.032C107.899 23.256 108.294 23.5813 108.625 24.008C108.955 24.4347 109.121 24.984 109.121 25.656C109.121 26.296 108.955 26.8773 108.625 27.4C108.305 27.9227 107.835 28.3387 107.217 28.648C106.598 28.9573 105.867 29.112 105.025 29.112ZM116.293 19.976C117.317 19.976 118.138 20.3173 118.757 21C119.375 21.672 119.685 22.6 119.685 23.784V29H116.965V24.152C116.965 23.5547 116.81 23.0907 116.501 22.76C116.191 22.4293 115.775 22.264 115.253 22.264C114.73 22.264 114.314 22.4293 114.005 22.76C113.695 23.0907 113.541 23.5547 113.541 24.152V29H110.805V17.16H113.541V21.272C113.818 20.8773 114.197 20.5627 114.677 20.328C115.157 20.0933 115.695 19.976 116.293 19.976ZM125.65 29.128C124.775 29.128 123.986 28.9413 123.282 28.568C122.588 28.1947 122.039 27.6613 121.634 26.968C121.239 26.2747 121.042 25.464 121.042 24.536C121.042 23.6187 121.244 22.8133 121.65 22.12C122.055 21.416 122.61 20.8773 123.314 20.504C124.018 20.1307 124.807 19.944 125.682 19.944C126.556 19.944 127.346 20.1307 128.05 20.504C128.754 20.8773 129.308 21.416 129.714 22.12C130.119 22.8133 130.322 23.6187 130.322 24.536C130.322 25.4533 130.114 26.264 129.698 26.968C129.292 27.6613 128.732 28.1947 128.018 28.568C127.314 28.9413 126.524 29.128 125.65 29.128ZM125.65 26.76C126.172 26.76 126.615 26.568 126.978 26.184C127.351 25.8 127.538 25.2507 127.538 24.536C127.538 23.8213 127.356 23.272 126.994 22.888C126.642 22.504 126.204 22.312 125.682 22.312C125.148 22.312 124.706 22.504 124.354 22.888C124.002 23.2613 123.826 23.8107 123.826 24.536C123.826 25.2507 123.996 25.8 124.338 26.184C124.69 26.568 125.127 26.76 125.65 26.76ZM134.509 21.336C134.776 20.92 135.144 20.584 135.613 20.328C136.083 20.072 136.632 19.944 137.261 19.944C137.997 19.944 138.664 20.1307 139.261 20.504C139.859 20.8773 140.328 21.4107 140.669 22.104C141.021 22.7973 141.197 23.6027 141.197 24.52C141.197 25.4373 141.021 26.248 140.669 26.952C140.328 27.6453 139.859 28.184 139.261 28.568C138.664 28.9413 137.997 29.128 137.261 29.128C136.643 29.128 136.093 29 135.613 28.744C135.144 28.488 134.776 28.1573 134.509 27.752V33.256H131.773V20.072H134.509V21.336ZM138.413 24.52C138.413 23.8373 138.221 23.304 137.837 22.92C137.464 22.5253 137 22.328 136.445 22.328C135.901 22.328 135.437 22.5253 135.053 22.92C134.68 23.3147 134.493 23.8533 134.493 24.536C134.493 25.2187 134.68 25.7573 135.053 26.152C135.437 26.5467 135.901 26.744 136.445 26.744C136.989 26.744 137.453 26.5467 137.837 26.152C138.221 25.7467 138.413 25.2027 138.413 24.52Z" fill="#1908DD"/>
<ellipse cx="28.5" cy="23.9594" rx="20.5" ry="20.9594" fill="white"/>
<path d="M23.7588 18.3203L21.4576 15.8301C14.5447 22.7644 18.5772 29.4783 21.4576 31.9686L23.7588 29.4783C19.7388 25.1109 22.0838 20.2199 23.7588 18.3203Z" fill="#FBE20B"/>
<path d="M25.9411 20.5706L23.7444 18.2959C19.7286 23.2763 21.8893 27.706 23.7443 29.4779L25.7872 27.3229C24.0026 24.7848 24.8097 21.822 25.9411 20.5706Z" fill="#FEB300"/>
<ellipse cx="29.1968" cy="24.0186" rx="4.97806" ry="5.0762" fill="#1916BF"/>
<path d="M25.7413 20.3555C26.8519 21.5611 28.208 24.6085 25.5427 27.5627C23.2042 24.8563 24.3089 21.5766 25.7413 20.3555Z" fill="#FF7D00"/>
<path d="M29.5952 26.1416C29.2872 26.1416 29.0112 26.0916 28.7672 25.9916C28.5232 25.8916 28.3272 25.7436 28.1792 25.5476C28.0352 25.3516 27.9592 25.1156 27.9512 24.8396H29.0432C29.0592 24.9956 29.1132 25.1156 29.2052 25.1996C29.2972 25.2796 29.4172 25.3196 29.5652 25.3196C29.7172 25.3196 29.8372 25.2856 29.9252 25.2176C30.0132 25.1456 30.0572 25.0476 30.0572 24.9236C30.0572 24.8196 30.0212 24.7336 29.9492 24.6656C29.8812 24.5976 29.7952 24.5416 29.6912 24.4976C29.5912 24.4536 29.4472 24.4036 29.2592 24.3476C28.9872 24.2636 28.7652 24.1796 28.5932 24.0956C28.4212 24.0116 28.2732 23.8876 28.1492 23.7236C28.0252 23.5596 27.9632 23.3456 27.9632 23.0816C27.9632 22.6896 28.1052 22.3836 28.3892 22.1636C28.6732 21.9396 29.0432 21.8276 29.4992 21.8276C29.9632 21.8276 30.3372 21.9396 30.6212 22.1636C30.9052 22.3836 31.0572 22.6916 31.0772 23.0876H29.9672C29.9592 22.9516 29.9092 22.8456 29.8172 22.7696C29.7252 22.6896 29.6072 22.6496 29.4632 22.6496C29.3392 22.6496 29.2392 22.6836 29.1632 22.7516C29.0872 22.8156 29.0492 22.9096 29.0492 23.0336C29.0492 23.1696 29.1132 23.2756 29.2412 23.3516C29.3692 23.4276 29.5692 23.5096 29.8412 23.5976C30.1132 23.6896 30.3332 23.7776 30.5012 23.8616C30.6732 23.9456 30.8212 24.0676 30.9452 24.2276C31.0692 24.3876 31.1312 24.5936 31.1312 24.8456C31.1312 25.0856 31.0692 25.3036 30.9452 25.4996C30.8252 25.6956 30.6492 25.8516 30.4172 25.9676C30.1852 26.0836 29.9112 26.1416 29.5952 26.1416Z" fill="white"/>
<path fill-rule="evenodd" clip-rule="evenodd" d="M9.79994 17.1545C9.61211 16.0291 10.4384 11.973 16.3745 7.14579C22.3106 2.31862 30.432 2.89966 33.7507 3.79359C35.6605 4.14477 40.1564 5.72829 42.8615 9.2529C45.5665 12.7775 43.9886 14.808 42.8615 15.3826L38.4 18.256C38.1339 18.4316 37.4326 18.6774 36.7563 18.256C35.8327 16.516 32.7175 13.1893 27.6455 13.8023C21.3055 14.5685 18.6286 19.6926 18.4878 23.5716H12.8526C12.9465 23.2683 12.9465 22.4319 12.1951 21.5124C9.97844 19.4436 9.79994 17.5376 9.79994 17.1545ZM9.77744 30.1899C9.58943 31.3506 10.4165 35.5339 16.3582 40.5124C22.3 45.4909 30.4292 44.8916 33.751 43.9697C35.6627 43.6075 40.1629 41.9743 42.8705 38.3392C45.5781 34.7041 43.9987 32.61 42.8705 32.0173L38.4048 29.0539C38.1384 28.8728 37.4364 28.6193 36.7595 29.0539C35.835 30.8484 32.7169 34.2794 27.64 33.6472C21.294 32.857 18.6146 27.5722 18.4735 23.5716H12.833C12.927 23.8845 12.927 24.7471 12.1749 25.6954C9.95611 27.8291 9.77744 29.7948 9.77744 30.1899Z" fill="url(#paint0_linear_1103_2)"/>
</g>
<defs>
<filter id="filter0_d_1103_2" x="0" y="0" width="154" height="56" filterUnits="userSpaceOnUse" color-interpolation-filters="sRGB">
<feFlood flood-opacity="0" result="BackgroundImageFix"/>
<feColorMatrix in="SourceAlpha" type="matrix" values="0 0 0 0 0 0 0 0 0 0 0 0 0 0 0 0 0 0 127 0" result="hardAlpha"/>
<feOffset dy="4"/>
<feGaussianBlur stdDeviation="2"/>
<feComposite in2="hardAlpha" operator="out"/>
<feColorMatrix type="matrix" values="0 0 0 0 0 0 0 0 0 0 0 0 0 0 0 0 0 0 0.25 0"/>
<feBlend mode="normal" in2="BackgroundImageFix" result="effect1_dropShadow_1103_2"/>
<feBlend mode="normal" in="SourceGraphic" in2="effect1_dropShadow_1103_2" result="shape"/>
</filter>
<linearGradient id="paint0_linear_1103_2" x1="43.3409" y1="33.1039" x2="12.0973" y2="30.0586" gradientUnits="userSpaceOnUse">
<stop stop-color="#22DBDE" stop-opacity="0.96"/>
<stop offset="1" stop-color="#A649FC" stop-opacity="0.89"/>
</linearGradient>
</defs>
</svg>
