<svg width="202" height="102" viewBox="0 0 202 102" fill="none" xmlns="http://www.w3.org/2000/svg">
<path d="M118.677 12.3225C116.363 9.99016 113.61 8.14002 110.576 6.87923C107.542 5.61845 104.288 4.97207 101.002 4.97751C97.7163 4.97237 94.4617 5.61887 91.427 6.87962C88.3923 8.14037 85.6376 9.99034 83.3225 12.3225C73.575 22.0675 73.575 37.93 83.3225 47.6775C85.6377 50.0103 88.3927 51.8607 91.4279 53.1215C94.4631 54.3822 97.7183 55.0284 101.005 55.0225C104.29 55.0283 107.544 54.3823 110.578 53.1219C113.612 51.8616 116.366 50.0119 118.68 47.68C128.427 37.935 128.427 22.0725 118.677 12.3225ZM101.452 10H100.555C100.707 9.99751 100.852 9.97751 101.005 9.97751C101.157 9.97751 101.3 9.99751 101.452 10ZM116.607 42.5H111L107.855 48.79C105.661 49.6005 103.341 50.0178 101.002 50.0225C98.6593 50.0182 96.3352 49.6001 94.1375 48.7875L91 42.525H85.4125C83.3511 39.9622 81.957 36.9284 81.355 33.695L86 27.5L82.96 21.4175C83.93 19.354 85.2485 17.4731 86.8575 15.8575C89.1094 13.5977 91.8697 11.9098 94.9075 10.935L101 15L107.095 10.9375C110.132 11.913 112.892 13.5998 115.145 15.8575C116.752 17.4712 118.07 19.3494 119.04 21.41L116 27.5L120.645 33.695C120.046 36.918 118.659 39.9428 116.607 42.5Z" fill="#22668A"/>
<path d="M92.25 27.5L96 37.5H106L109.75 27.5L101 21.25L92.25 27.5Z" fill="#22668A"/>
<path d="M12.216 86.764C12.216 88.42 12.036 89.812 11.676 90.94C11.316 92.068 10.656 92.92 9.69599 93.496C8.73598 94.072 7.35598 94.36 5.55598 94.36C4.72798 94.36 3.87598 94.288 2.99998 94.144C2.12398 94.012 1.48198 93.892 1.07398 93.784L1.18198 88.978C1.52998 89.05 1.92598 89.146 2.36998 89.266C2.82598 89.386 3.32998 89.446 3.88198 89.446C5.08198 89.446 5.89198 89.128 6.31198 88.492C6.74398 87.844 6.95998 86.8 6.95998 85.36V67.972H12.216V86.764ZM21.1384 85.9C21.1264 87.328 21.4684 88.462 22.1644 89.302C22.8604 90.142 23.8384 90.562 25.0984 90.562C25.9984 90.562 26.7844 90.37 27.4564 89.986C28.1404 89.602 28.6144 88.972 28.8784 88.096H33.6124C33.4084 89.416 32.8804 90.544 32.0284 91.48C31.1884 92.416 30.1684 93.13 28.9684 93.622C27.7684 94.114 26.5204 94.36 25.2244 94.36C23.3764 94.36 21.7564 93.976 20.3644 93.208C18.9724 92.428 17.8864 91.33 17.1064 89.914C16.3264 88.498 15.9364 86.83 15.9364 84.91C15.9364 83.05 16.2904 81.376 16.9984 79.888C17.7064 78.388 18.7324 77.206 20.0764 76.342C21.4324 75.466 23.0584 75.028 24.9544 75.028C26.8504 75.028 28.4404 75.43 29.7244 76.234C31.0204 77.026 31.9924 78.136 32.6404 79.564C33.3004 80.98 33.6304 82.618 33.6304 84.478V85.9H21.1384ZM21.1204 82.768H28.7164C28.7164 81.64 28.4044 80.68 27.7804 79.888C27.1564 79.096 26.2144 78.7 24.9544 78.7C24.1384 78.7 23.4424 78.898 22.8664 79.294C22.3024 79.69 21.8704 80.2 21.5704 80.824C21.2704 81.436 21.1204 82.084 21.1204 82.768ZM37.2793 94V75.388H42.3373V79.798C42.7813 78.37 43.5073 77.218 44.5153 76.342C45.5233 75.466 46.7653 75.028 48.2413 75.028C48.6373 75.028 48.9073 75.064 49.0513 75.136V80.14C48.9433 80.104 48.8113 80.08 48.6553 80.068C48.5113 80.044 48.3793 80.026 48.2593 80.014C46.1833 79.834 44.7073 80.11 43.8313 80.842C42.9673 81.574 42.5353 82.564 42.5353 83.812V94H37.2793ZM59.196 94.36C57.888 94.36 56.64 94.15 55.452 93.73C54.264 93.298 53.25 92.626 52.41 91.714C51.57 90.802 51.042 89.608 50.826 88.132H55.38C55.608 89.128 56.112 89.818 56.892 90.202C57.684 90.574 58.44 90.76 59.16 90.76C60.168 90.76 60.978 90.604 61.59 90.292C62.214 89.968 62.526 89.476 62.526 88.816C62.526 88.312 62.34 87.91 61.968 87.61C61.608 87.31 61.008 87.082 60.168 86.926L56.892 86.242C55.248 85.894 53.922 85.306 52.914 84.478C51.918 83.638 51.414 82.45 51.402 80.914C51.39 79.234 52.05 77.836 53.382 76.72C54.726 75.592 56.67 75.028 59.214 75.028C61.506 75.028 63.336 75.538 64.704 76.558C66.084 77.566 66.786 78.982 66.81 80.806H62.418C62.286 80.086 61.926 79.534 61.338 79.15C60.762 78.754 60.036 78.556 59.16 78.556C58.248 78.556 57.498 78.718 56.91 79.042C56.322 79.366 56.028 79.858 56.028 80.518C56.028 81.01 56.268 81.4 56.748 81.688C57.228 81.964 57.972 82.204 58.98 82.408L62.004 83.092C63.384 83.428 64.434 83.92 65.154 84.568C65.886 85.216 66.378 85.9 66.63 86.62C66.894 87.328 67.026 87.964 67.026 88.528C67.026 90.388 66.3 91.828 64.848 92.848C63.396 93.856 61.512 94.36 59.196 94.36ZM75.0329 85.9C75.0209 87.328 75.3629 88.462 76.0589 89.302C76.7549 90.142 77.7329 90.562 78.9929 90.562C79.8929 90.562 80.6789 90.37 81.3509 89.986C82.0349 89.602 82.5089 88.972 82.7729 88.096H87.5069C87.3029 89.416 86.7749 90.544 85.9229 91.48C85.0829 92.416 84.0629 93.13 82.8629 93.622C81.6629 94.114 80.4149 94.36 79.1189 94.36C77.2709 94.36 75.6509 93.976 74.2589 93.208C72.8669 92.428 71.7809 91.33 71.0009 89.914C70.2209 88.498 69.8309 86.83 69.8309 84.91C69.8309 83.05 70.1849 81.376 70.8929 79.888C71.6009 78.388 72.6269 77.206 73.9709 76.342C75.3269 75.466 76.9529 75.028 78.8489 75.028C80.7449 75.028 82.3349 75.43 83.6189 76.234C84.9149 77.026 85.8869 78.136 86.5349 79.564C87.1949 80.98 87.5249 82.618 87.5249 84.478V85.9H75.0329ZM75.0149 82.768H82.6109C82.6109 81.64 82.2989 80.68 81.6749 79.888C81.0509 79.096 80.1089 78.7 78.8489 78.7C78.0329 78.7 77.3369 78.898 76.7609 79.294C76.1969 79.69 75.7649 80.2 75.4649 80.824C75.1649 81.436 75.0149 82.084 75.0149 82.768ZM93.2632 99.94C91.9912 99.94 91.0912 99.832 90.5632 99.616C90.0472 99.412 89.7892 99.31 89.7892 99.31V95.962L91.6252 96.034C92.7052 96.094 93.5032 96.01 94.0192 95.782C94.5472 95.566 94.9012 95.302 95.0812 94.99C95.2732 94.678 95.4052 94.432 95.4772 94.252L95.8192 93.226L88.5832 75.388H93.7852L98.2492 87.52L102.767 75.388H107.897L100.355 94.108C99.7072 95.692 99.0172 96.904 98.2852 97.744C97.5652 98.584 96.7912 99.16 95.9632 99.472C95.1352 99.784 94.2352 99.94 93.2632 99.94ZM111.947 94V67.972H120.533C122.381 67.972 124.025 68.284 125.465 68.908C126.905 69.52 128.039 70.432 128.867 71.644C129.695 72.844 130.109 74.332 130.109 76.108C130.109 77.848 129.719 79.33 128.939 80.554C128.171 81.766 127.097 82.69 125.717 83.326C124.337 83.962 122.741 84.28 120.929 84.28H114.863V94H111.947ZM114.845 81.814H120.875C122.783 81.814 124.331 81.298 125.519 80.266C126.719 79.222 127.319 77.782 127.319 75.946C127.319 74.098 126.707 72.712 125.483 71.788C124.259 70.864 122.657 70.402 120.677 70.402H114.845V81.814ZM135.336 85.342C135.336 86.59 135.54 87.724 135.948 88.744C136.356 89.764 136.986 90.58 137.838 91.192C138.69 91.804 139.77 92.11 141.078 92.11C142.338 92.11 143.424 91.816 144.336 91.228C145.248 90.628 145.818 89.782 146.046 88.69H148.746C148.518 89.938 148.02 90.982 147.252 91.822C146.496 92.662 145.578 93.298 144.498 93.73C143.418 94.15 142.29 94.36 141.114 94.36C139.41 94.36 137.904 93.988 136.596 93.244C135.3 92.488 134.286 91.402 133.554 89.986C132.834 88.57 132.474 86.866 132.474 84.874C132.474 82.894 132.804 81.166 133.464 79.69C134.124 78.214 135.078 77.068 136.326 76.252C137.586 75.436 139.104 75.028 140.88 75.028C143.448 75.028 145.422 75.85 146.802 77.494C148.194 79.126 148.89 81.358 148.89 84.19V85.342H135.336ZM135.354 83.344H146.154C146.154 81.616 145.722 80.164 144.858 78.988C143.994 77.812 142.662 77.224 140.862 77.224C139.59 77.224 138.546 77.53 137.73 78.142C136.914 78.742 136.308 79.51 135.912 80.446C135.528 81.382 135.342 82.348 135.354 83.344ZM160.357 94.36C157.957 94.36 156.049 93.544 154.633 91.912C153.217 90.268 152.509 87.838 152.509 84.622C152.509 81.73 153.145 79.408 154.417 77.656C155.689 75.904 157.603 75.028 160.159 75.028C161.431 75.028 162.493 75.238 163.345 75.658C164.209 76.078 164.887 76.558 165.379 77.098C165.883 77.638 166.225 78.088 166.405 78.448V67.252H169.249V94H167.035L166.747 90.184C166.639 90.508 166.459 90.904 166.207 91.372C165.955 91.84 165.583 92.302 165.091 92.758C164.611 93.214 163.987 93.598 163.219 93.91C162.451 94.21 161.497 94.36 160.357 94.36ZM160.789 92.128C162.829 92.128 164.275 91.528 165.127 90.328C165.979 89.116 166.405 87.154 166.405 84.442C166.381 82.198 165.949 80.446 165.109 79.186C164.281 77.914 162.871 77.278 160.879 77.278C159.235 77.278 157.903 77.854 156.883 79.006C155.875 80.158 155.371 81.97 155.371 84.442C155.371 86.842 155.821 88.726 156.721 90.094C157.633 91.45 158.989 92.128 160.789 92.128ZM178.54 67.99V71.086H175.588V67.99H178.54ZM178.45 75.388V94H175.714V75.388H178.45ZM189.675 94.36C187.851 94.36 186.381 93.892 185.265 92.956C184.149 92.02 183.591 90.712 183.591 89.032C183.591 86.968 184.293 85.438 185.697 84.442C187.113 83.446 189.399 82.906 192.555 82.822L196.155 82.714V81.166C196.155 79.954 195.783 78.988 195.039 78.268C194.307 77.548 193.173 77.188 191.637 77.188C190.485 77.188 189.483 77.458 188.631 77.998C187.779 78.538 187.245 79.39 187.029 80.554H184.473C184.581 78.814 185.265 77.458 186.525 76.486C187.785 75.514 189.537 75.028 191.781 75.028C194.073 75.028 195.825 75.538 197.037 76.558C198.249 77.566 198.855 79.06 198.855 81.04V94H196.443L196.245 90.418C195.501 91.894 194.553 92.92 193.401 93.496C192.261 94.072 191.019 94.36 189.675 94.36ZM190.467 92.254C191.355 92.254 192.231 92.044 193.095 91.624C193.971 91.204 194.697 90.664 195.273 90.004C195.849 89.344 196.143 88.648 196.155 87.916V84.604L193.149 84.658C190.785 84.694 189.057 85.03 187.965 85.666C186.873 86.302 186.327 87.34 186.327 88.78C186.327 89.872 186.711 90.724 187.479 91.336C188.247 91.948 189.243 92.254 190.467 92.254Z" fill="#22668A"/>
</svg>
