<svg width="46" height="46" viewBox="0 0 46 46" fill="none" xmlns="http://www.w3.org/2000/svg">
<circle cx="23" cy="23" r="23" fill="white"/>
<circle cx="23" cy="23" r="23" fill="white"/>
<path d="M17.6846 16.8118L15.1028 14.0791C7.34681 21.6885 11.8711 29.0561 15.1028 31.7888L17.6846 29.0561C13.1743 24.2635 15.8053 18.8963 17.6846 16.8118Z" fill="#FBE20B"/>
<path d="M20.1306 19.2813L17.666 16.7852C13.1605 22.2505 15.5846 27.1114 17.6658 29.0558L19.9579 26.691C17.9556 23.9058 18.8612 20.6545 20.1306 19.2813Z" fill="#FEB300"/>
<ellipse cx="23.7844" cy="23.0645" rx="5.58514" ry="5.57041" fill="#1916BF"/>
<path d="M19.9074 19.0449C21.1533 20.3679 22.6749 23.712 19.6845 26.9538C17.0608 23.984 18.3003 20.385 19.9074 19.0449Z" fill="#FF7D00"/>
<path d="M24.3175 25.8136C23.9581 25.8136 23.6361 25.7553 23.3515 25.6386C23.0668 25.522 22.8381 25.3493 22.6655 25.1206C22.4975 24.892 22.4088 24.6166 22.3995 24.2946H23.6735C23.6921 24.4766 23.7551 24.6166 23.8625 24.7146C23.9698 24.808 24.1098 24.8546 24.2825 24.8546C24.4598 24.8546 24.5998 24.815 24.7025 24.7356C24.8051 24.6516 24.8565 24.5373 24.8565 24.3926C24.8565 24.2713 24.8145 24.171 24.7305 24.0916C24.6511 24.0123 24.5508 23.947 24.4295 23.8956C24.3128 23.8443 24.1448 23.786 23.9255 23.7206C23.6081 23.6226 23.3491 23.5246 23.1485 23.4266C22.9478 23.3286 22.7751 23.184 22.6305 22.9926C22.4858 22.8013 22.4135 22.5516 22.4135 22.2436C22.4135 21.7863 22.5791 21.4293 22.9105 21.1726C23.2418 20.9113 23.6735 20.7806 24.2055 20.7806C24.7468 20.7806 25.1831 20.9113 25.5145 21.1726C25.8458 21.4293 26.0231 21.7886 26.0465 22.2506H24.7515C24.7421 22.092 24.6838 21.9683 24.5765 21.8796C24.4691 21.7863 24.3315 21.7396 24.1635 21.7396C24.0188 21.7396 23.9021 21.7793 23.8135 21.8586C23.7248 21.9333 23.6805 22.043 23.6805 22.1876C23.6805 22.3463 23.7551 22.47 23.9045 22.5586C24.0538 22.6473 24.2871 22.743 24.6045 22.8456C24.9218 22.953 25.1785 23.0556 25.3745 23.1536C25.5751 23.2516 25.7478 23.394 25.8925 23.5806C26.0371 23.7673 26.1095 24.0076 26.1095 24.3016C26.1095 24.5816 26.0371 24.836 25.8925 25.0646C25.7525 25.2933 25.5471 25.4753 25.2765 25.6106C25.0058 25.746 24.6861 25.8136 24.3175 25.8136Z" fill="white"/>
<path fill-rule="evenodd" clip-rule="evenodd" d="M2.01857 15.5329C1.80783 14.2979 2.73484 9.84686 9.39486 4.54972C16.0549 -0.747423 25.1667 -0.109804 28.8901 0.871147C31.0329 1.25652 36.0771 2.99421 39.112 6.86197C42.1469 10.7297 40.3766 12.9579 39.112 13.5885L34.1064 16.7416C33.8079 16.9342 33.021 17.204 32.2623 16.7416C31.2261 14.8322 27.731 11.1817 22.0404 11.8543C14.9273 12.6951 11.9239 18.3181 11.7659 22.5747H5.44347C5.54885 22.2419 5.54885 21.324 4.70581 20.315C2.21884 18.0448 2.01857 15.9533 2.01857 15.5329ZM1.99515 29.8373C1.78422 31.111 2.71211 35.7016 9.37848 41.1648C16.0449 46.628 25.1654 45.9704 28.8923 44.9587C31.0371 44.5612 36.0861 42.7691 39.124 38.7801C42.1618 34.7911 40.3897 32.4931 39.124 31.8427L34.1136 28.5908C33.8148 28.392 33.0272 28.1138 32.2677 28.5908C31.2305 30.56 27.7321 34.325 22.0361 33.6312C14.9162 32.7641 11.91 26.9648 11.7518 22.5748H5.42332C5.5288 22.918 5.5288 23.8647 4.68496 24.9053C2.19562 27.2467 1.99515 29.4038 1.99515 29.8373Z" fill="url(#paint0_linear_1089_45)"/>
<defs>
<linearGradient id="paint0_linear_1089_45" x1="39.6517" y1="33.035" x2="4.61283" y2="29.5432" gradientUnits="userSpaceOnUse">
<stop stop-color="#22DBDE" stop-opacity="0.96"/>
<stop offset="1" stop-color="#A649FC" stop-opacity="0.89"/>
</linearGradient>
</defs>
</svg>
